<svg width="478" height="247" viewBox="0 0 478 247" fill="none" xmlns="http://www.w3.org/2000/svg">
<ellipse cx="173" cy="123.5" rx="173" ry="123.5" fill="url(#paint0_linear_17_25)"/>
<path d="M255.469 184.312C249.135 184.312 243.573 183.25 238.781 181.125C234.031 178.958 230.281 175.667 227.531 171.25C224.823 166.833 223.344 161.229 223.094 154.438L223.219 154.062H240.344C240.677 160.021 242.01 164.188 244.344 166.562C246.677 168.896 249.781 170.062 253.656 170.062C256.156 170.062 258.344 169.521 260.219 168.438C262.135 167.354 263.635 165.75 264.719 163.625C265.844 161.458 266.406 158.812 266.406 155.688V104.875L254.156 103V92H294.344V103L284.594 104.875V155.688C284.594 161.521 283.469 166.583 281.219 170.875C278.969 175.167 275.677 178.479 271.344 180.812C267.01 183.146 261.719 184.312 255.469 184.312ZM335.531 183L306.281 104L298.156 103V92H334.344V103L326.156 104.25L344.031 157.938L345.406 162.938H345.781L347.094 158.062L364.969 104.25L355.406 103V92H389.906V103L381.656 104L354.219 183H335.531ZM436.969 184.312C427.927 184.312 420.219 182.438 413.844 178.688C407.469 174.938 402.573 169.729 399.156 163.062C395.781 156.396 394.094 148.667 394.094 139.875V136.75C394.094 127.667 395.781 119.667 399.156 112.75C402.531 105.833 407.302 100.438 413.469 96.5625C419.677 92.6458 427.01 90.6875 435.469 90.6875C442.01 90.6875 448.156 91.5833 453.906 93.375C459.656 95.1667 464.656 97.8542 468.906 101.438V121.625H455.406L452.844 109.438C451.219 108.021 449.031 106.896 446.281 106.062C443.531 105.188 440.385 104.75 436.844 104.75C431.76 104.75 427.365 106.104 423.656 108.812C419.99 111.479 417.177 115.208 415.219 120C413.26 124.75 412.281 130.292 412.281 136.625V139.875C412.281 146.042 413.24 151.417 415.156 156C417.115 160.542 419.969 164.062 423.719 166.562C427.469 169.062 432.073 170.312 437.531 170.312C440.74 170.312 443.677 170.021 446.344 169.438C449.052 168.812 451.281 168.062 453.031 167.188V151.75L440.031 150.75V137.938H471.344V174.75C467.302 177.625 462.427 179.938 456.719 181.688C451.052 183.438 444.469 184.312 436.969 184.312Z" fill="#431F7F"/>
<path d="M264 79.4922C262.297 79.4922 260.703 79.3203 259.219 78.9766C257.734 78.6328 256.156 78.1016 254.484 77.3828L254.438 71.3594H257.93L258.797 74.9922C259.672 75.3516 260.516 75.6172 261.328 75.7891C262.156 75.9453 263.047 76.0234 264 76.0234C265.875 76.0234 267.219 75.6641 268.031 74.9453C268.844 74.2266 269.25 73.3359 269.25 72.2734C269.25 71.2734 268.836 70.4297 268.008 69.7422C267.195 69.0391 265.711 68.4453 263.555 67.9609C260.492 67.2578 258.234 66.3203 256.781 65.1484C255.344 63.9609 254.625 62.3828 254.625 60.4141C254.625 59.0391 255.023 57.8125 255.82 56.7344C256.617 55.6406 257.727 54.7734 259.148 54.1328C260.57 53.4922 262.227 53.1719 264.117 53.1719C266.039 53.1719 267.68 53.3906 269.039 53.8281C270.414 54.2656 271.609 54.8516 272.625 55.5859L272.859 61.375H269.391L268.641 58C268.094 57.5938 267.445 57.2812 266.695 57.0625C265.945 56.8438 265.086 56.7344 264.117 56.7344C262.68 56.7344 261.508 57.0703 260.602 57.7422C259.711 58.4141 259.266 59.2578 259.266 60.2734C259.266 60.8672 259.391 61.3828 259.641 61.8203C259.906 62.2578 260.406 62.6562 261.141 63.0156C261.875 63.3594 262.953 63.7031 264.375 64.0469C267.906 64.875 270.367 65.9297 271.758 67.2109C273.164 68.4922 273.867 70.0703 273.867 71.9453C273.867 74.0859 273.07 75.8828 271.477 77.3359C269.898 78.7734 267.406 79.4922 264 79.4922ZM288.561 79.3984C286.686 79.3984 285.193 78.8516 284.084 77.7578C282.99 76.6484 282.443 74.8828 282.443 72.4609V57.0625H278.436V53.6406H282.443V47.5234H287.061V53.6406H292.568V57.0625H287.061V72.4609C287.061 73.6797 287.303 74.5781 287.787 75.1562C288.272 75.7344 288.92 76.0234 289.733 76.0234C290.279 76.0234 290.889 75.9766 291.561 75.8828C292.233 75.7734 292.756 75.6797 293.131 75.6016L293.764 78.625C293.092 78.8281 292.264 79.0078 291.279 79.1641C290.311 79.3203 289.404 79.3984 288.561 79.3984ZM298.473 79V76.0469L302.293 75.3906V57.2734L298.473 56.6172V53.6406H306.91V75.3906L310.731 76.0469V79H298.473ZM302.059 47.3828V42.4375H306.91V47.3828H302.059ZM327.299 79.4922C325.002 79.4922 323.002 78.9609 321.299 77.8984C319.596 76.8203 318.276 75.3281 317.338 73.4219C316.401 71.5156 315.932 69.3125 315.932 66.8125V65.8281C315.932 63.4219 316.385 61.2656 317.291 59.3594C318.197 57.4531 319.502 55.9453 321.205 54.8359C322.908 53.7266 324.94 53.1719 327.299 53.1719C329.346 53.1719 331.135 53.5078 332.666 54.1797C334.213 54.8516 335.51 55.7734 336.557 56.9453L336.674 63.0391H333.065L332.268 58.6094C331.737 58.0625 331.072 57.625 330.276 57.2969C329.479 56.9688 328.541 56.8047 327.463 56.8047C326.088 56.8047 324.877 57.2109 323.83 58.0234C322.799 58.8359 321.994 59.9219 321.416 61.2812C320.838 62.6406 320.549 64.1562 320.549 65.8281V66.8125C320.549 68.6562 320.815 70.2578 321.346 71.6172C321.893 72.9766 322.666 74.0312 323.666 74.7812C324.682 75.5156 325.885 75.8828 327.276 75.8828C328.838 75.8828 330.135 75.4531 331.166 74.5938C332.197 73.7344 332.83 72.5547 333.065 71.0547H337.213L337.26 71.1953C337.182 72.6484 336.752 74.0078 335.971 75.2734C335.19 76.5391 334.072 77.5625 332.619 78.3438C331.182 79.1094 329.408 79.4922 327.299 79.4922ZM342.203 79V76.0469L346.024 75.3906V46.0703L342.203 45.4141V42.4375H350.641V57.0156C351.516 55.7969 352.586 54.8516 353.852 54.1797C355.118 53.5078 356.524 53.1719 358.071 53.1719C360.789 53.1719 362.899 53.9844 364.399 55.6094C365.899 57.2344 366.649 59.7344 366.649 63.1094V75.3906L370.469 76.0469V79H358.211V76.0469L362.032 75.3906V63.0625C362.032 60.9688 361.578 59.4219 360.672 58.4219C359.782 57.4219 358.446 56.9219 356.664 56.9219C355.399 56.9219 354.243 57.2266 353.196 57.8359C352.164 58.4297 351.313 59.2422 350.641 60.2734V75.3906L354.461 76.0469V79H342.203ZM383.569 79.3984C381.694 79.3984 380.202 78.8516 379.092 77.7578C377.998 76.6484 377.452 74.8828 377.452 72.4609V57.0625H373.444V53.6406H377.452V47.5234H382.069V53.6406H387.577V57.0625H382.069V72.4609C382.069 73.6797 382.311 74.5781 382.795 75.1562C383.28 75.7344 383.928 76.0234 384.741 76.0234C385.287 76.0234 385.897 75.9766 386.569 75.8828C387.241 75.7734 387.764 75.6797 388.139 75.6016L388.772 78.625C388.1 78.8281 387.272 79.0078 386.287 79.1641C385.319 79.3203 384.412 79.3984 383.569 79.3984ZM393.481 79V76.0469L397.301 75.3906V57.2734L393.481 56.6172V53.6406H401.918V75.3906L405.739 76.0469V79H393.481ZM397.067 47.3828V42.4375H401.918V47.3828H397.067ZM410.846 79V76.0469L414.667 75.3906V57.2734L410.846 56.6172V53.6406H418.792L419.12 57.4141C419.963 56.0703 421.018 55.0312 422.284 54.2969C423.565 53.5469 425.018 53.1719 426.643 53.1719C429.378 53.1719 431.495 53.9766 432.995 55.5859C434.495 57.1797 435.245 59.6484 435.245 62.9922V75.3906L439.065 76.0469V79H426.807V76.0469L430.628 75.3906V63.0859C430.628 60.8516 430.182 59.2656 429.292 58.3281C428.417 57.3906 427.073 56.9219 425.26 56.9219C423.932 56.9219 422.753 57.2422 421.721 57.8828C420.706 58.5234 419.893 59.3984 419.284 60.5078V75.3906L423.104 76.0469V79H410.846ZM455.165 89.2422C453.946 89.2422 452.626 89.0703 451.204 88.7266C449.782 88.3984 448.532 87.9453 447.454 87.3672L448.649 83.7812C449.508 84.2344 450.524 84.6094 451.696 84.9062C452.868 85.2031 454.008 85.3516 455.118 85.3516C457.18 85.3516 458.688 84.7734 459.641 83.6172C460.61 82.4609 461.094 80.8125 461.094 78.6719V76.2578C460.266 77.3203 459.274 78.125 458.118 78.6719C456.962 79.2188 455.633 79.4922 454.133 79.4922C452.071 79.4922 450.29 78.9844 448.79 77.9688C447.29 76.9375 446.133 75.5078 445.321 73.6797C444.524 71.8359 444.126 69.7031 444.126 67.2812V66.7891C444.126 64.0703 444.524 61.6875 445.321 59.6406C446.133 57.5938 447.29 56.0078 448.79 54.8828C450.29 53.7422 452.087 53.1719 454.18 53.1719C455.774 53.1719 457.173 53.4844 458.376 54.1094C459.579 54.7344 460.587 55.6406 461.399 56.8281L461.821 53.6406H465.712V78.6719C465.712 80.8594 465.298 82.7422 464.469 84.3203C463.657 85.8984 462.462 87.1094 460.883 87.9531C459.321 88.8125 457.415 89.2422 455.165 89.2422ZM455.282 75.7422C456.673 75.7422 457.837 75.4297 458.774 74.8047C459.712 74.1641 460.485 73.2656 461.094 72.1094V60.4375C460.501 59.3594 459.727 58.5078 458.774 57.8828C457.821 57.2422 456.673 56.9219 455.329 56.9219C453.86 56.9219 452.633 57.3438 451.649 58.1875C450.68 59.0312 449.954 60.1953 449.469 61.6797C448.985 63.1484 448.743 64.8516 448.743 66.7891V67.2812C448.743 69.8281 449.282 71.875 450.36 73.4219C451.438 74.9688 453.079 75.7422 455.282 75.7422ZM465.008 57.4141L463.204 53.6406H468.852V56.5938L465.008 57.4141Z" fill="#431F7F"/>
<path d="M229.771 141.369C228.225 141.369 226.895 140.988 225.781 140.227C224.68 139.453 223.836 138.381 223.25 137.01C222.664 135.639 222.371 134.039 222.371 132.211V131.842C222.371 129.803 222.664 128.016 223.25 126.48C223.836 124.945 224.686 123.756 225.799 122.912C226.912 122.057 228.248 121.629 229.807 121.629C230.932 121.629 231.922 121.84 232.777 122.262C233.645 122.672 234.383 123.27 234.992 124.055V116.303L232.127 115.811V113.578H234.992H238.455V138.293L241.32 138.785V141H235.449L235.168 138.732C234.547 139.6 233.785 140.256 232.883 140.701C231.992 141.146 230.955 141.369 229.771 141.369ZM230.65 138.557C231.682 138.557 232.549 138.322 233.252 137.854C233.955 137.385 234.535 136.723 234.992 135.867V127.043C234.547 126.246 233.967 125.613 233.252 125.145C232.537 124.676 231.682 124.441 230.686 124.441C229.584 124.441 228.676 124.758 227.961 125.391C227.246 126.012 226.713 126.879 226.361 127.992C226.01 129.094 225.834 130.377 225.834 131.842V132.211C225.834 134.121 226.227 135.656 227.012 136.816C227.797 137.977 229.01 138.557 230.65 138.557ZM252.271 141.369C250.514 141.369 248.984 140.971 247.684 140.174C246.383 139.365 245.375 138.246 244.66 136.816C243.957 135.387 243.605 133.734 243.605 131.859V131.086C243.605 129.281 243.975 127.67 244.713 126.252C245.463 124.822 246.453 123.697 247.684 122.877C248.926 122.045 250.279 121.629 251.744 121.629C253.455 121.629 254.885 121.98 256.033 122.684C257.193 123.387 258.066 124.377 258.652 125.654C259.238 126.92 259.531 128.414 259.531 130.137V132.299H247.191L247.139 132.387C247.162 133.605 247.373 134.689 247.771 135.639C248.182 136.576 248.768 137.314 249.529 137.854C250.291 138.393 251.205 138.662 252.271 138.662C253.443 138.662 254.469 138.498 255.348 138.17C256.238 137.83 257.006 137.367 257.65 136.781L259.004 139.031C258.324 139.688 257.422 140.244 256.297 140.701C255.184 141.146 253.842 141.369 252.271 141.369ZM247.297 129.592H256.068V129.135C256.068 128.221 255.904 127.406 255.576 126.691C255.26 125.965 254.779 125.396 254.135 124.986C253.502 124.564 252.705 124.354 251.744 124.354C250.971 124.354 250.268 124.582 249.635 125.039C249.002 125.484 248.48 126.094 248.07 126.867C247.66 127.641 247.391 128.52 247.262 129.504L247.297 129.592Z" fill="#431F7F"/>
<defs>
<linearGradient id="paint0_linear_17_25" x1="173" y1="0" x2="173" y2="247" gradientUnits="userSpaceOnUse">
<stop stop-color="#FF870F"/>
<stop offset="1" stop-color="#FFA347"/>
</linearGradient>
</defs>
</svg>
