<svg width="984" height="247" viewBox="0 0 984 247" fill="none" xmlns="http://www.w3.org/2000/svg">
<rect width="984" height="247" fill="white"/>
<ellipse cx="173" cy="123.5" rx="173" ry="123.5" fill="url(#paint0_linear_14_2)"/>
<path d="M255.469 184.312C249.135 184.312 243.573 183.25 238.781 181.125C234.031 178.958 230.281 175.667 227.531 171.25C224.823 166.833 223.344 161.229 223.094 154.438L223.219 154.062H240.344C240.677 160.021 242.01 164.188 244.344 166.562C246.677 168.896 249.781 170.062 253.656 170.062C256.156 170.062 258.344 169.521 260.219 168.438C262.135 167.354 263.635 165.75 264.719 163.625C265.844 161.458 266.406 158.812 266.406 155.688V104.875L254.156 103V92H294.344V103L284.594 104.875V155.688C284.594 161.521 283.469 166.583 281.219 170.875C278.969 175.167 275.677 178.479 271.344 180.812C267.01 183.146 261.719 184.312 255.469 184.312ZM335.531 183L306.281 104L298.156 103V92H334.344V103L326.156 104.25L344.031 157.938L345.406 162.938H345.781L347.094 158.062L364.969 104.25L355.406 103V92H389.906V103L381.656 104L354.219 183H335.531ZM436.969 184.312C427.927 184.312 420.219 182.438 413.844 178.688C407.469 174.938 402.573 169.729 399.156 163.062C395.781 156.396 394.094 148.667 394.094 139.875V136.75C394.094 127.667 395.781 119.667 399.156 112.75C402.531 105.833 407.302 100.438 413.469 96.5625C419.677 92.6458 427.01 90.6875 435.469 90.6875C442.01 90.6875 448.156 91.5833 453.906 93.375C459.656 95.1667 464.656 97.8542 468.906 101.438V121.625H455.406L452.844 109.438C451.219 108.021 449.031 106.896 446.281 106.062C443.531 105.188 440.385 104.75 436.844 104.75C431.76 104.75 427.365 106.104 423.656 108.812C419.99 111.479 417.177 115.208 415.219 120C413.26 124.75 412.281 130.292 412.281 136.625V139.875C412.281 146.042 413.24 151.417 415.156 156C417.115 160.542 419.969 164.062 423.719 166.562C427.469 169.062 432.073 170.312 437.531 170.312C440.74 170.312 443.677 170.021 446.344 169.438C449.052 168.812 451.281 168.062 453.031 167.188V151.75L440.031 150.75V137.938H471.344V174.75C467.302 177.625 462.427 179.938 456.719 181.688C451.052 183.438 444.469 184.312 436.969 184.312Z" fill="#431F7F"/>
<path d="M264 79.4922C262.297 79.4922 260.703 79.3203 259.219 78.9766C257.734 78.6328 256.156 78.1016 254.484 77.3828L254.438 71.3594H257.93L258.797 74.9922C259.672 75.3516 260.516 75.6172 261.328 75.7891C262.156 75.9453 263.047 76.0234 264 76.0234C265.875 76.0234 267.219 75.6641 268.031 74.9453C268.844 74.2266 269.25 73.3359 269.25 72.2734C269.25 71.2734 268.836 70.4297 268.008 69.7422C267.195 69.0391 265.711 68.4453 263.555 67.9609C260.492 67.2578 258.234 66.3203 256.781 65.1484C255.344 63.9609 254.625 62.3828 254.625 60.4141C254.625 59.0391 255.023 57.8125 255.82 56.7344C256.617 55.6406 257.727 54.7734 259.148 54.1328C260.57 53.4922 262.227 53.1719 264.117 53.1719C266.039 53.1719 267.68 53.3906 269.039 53.8281C270.414 54.2656 271.609 54.8516 272.625 55.5859L272.859 61.375H269.391L268.641 58C268.094 57.5938 267.445 57.2812 266.695 57.0625C265.945 56.8438 265.086 56.7344 264.117 56.7344C262.68 56.7344 261.508 57.0703 260.602 57.7422C259.711 58.4141 259.266 59.2578 259.266 60.2734C259.266 60.8672 259.391 61.3828 259.641 61.8203C259.906 62.2578 260.406 62.6562 261.141 63.0156C261.875 63.3594 262.953 63.7031 264.375 64.0469C267.906 64.875 270.367 65.9297 271.758 67.2109C273.164 68.4922 273.867 70.0703 273.867 71.9453C273.867 74.0859 273.07 75.8828 271.477 77.3359C269.898 78.7734 267.406 79.4922 264 79.4922ZM288.561 79.3984C286.686 79.3984 285.193 78.8516 284.084 77.7578C282.99 76.6484 282.443 74.8828 282.443 72.4609V57.0625H278.436V53.6406H282.443V47.5234H287.061V53.6406H292.568V57.0625H287.061V72.4609C287.061 73.6797 287.303 74.5781 287.787 75.1562C288.272 75.7344 288.92 76.0234 289.733 76.0234C290.279 76.0234 290.889 75.9766 291.561 75.8828C292.233 75.7734 292.756 75.6797 293.131 75.6016L293.764 78.625C293.092 78.8281 292.264 79.0078 291.279 79.1641C290.311 79.3203 289.404 79.3984 288.561 79.3984ZM298.473 79V76.0469L302.293 75.3906V57.2734L298.473 56.6172V53.6406H306.91V75.3906L310.731 76.0469V79H298.473ZM302.059 47.3828V42.4375H306.91V47.3828H302.059ZM327.299 79.4922C325.002 79.4922 323.002 78.9609 321.299 77.8984C319.596 76.8203 318.276 75.3281 317.338 73.4219C316.401 71.5156 315.932 69.3125 315.932 66.8125V65.8281C315.932 63.4219 316.385 61.2656 317.291 59.3594C318.197 57.4531 319.502 55.9453 321.205 54.8359C322.908 53.7266 324.94 53.1719 327.299 53.1719C329.346 53.1719 331.135 53.5078 332.666 54.1797C334.213 54.8516 335.51 55.7734 336.557 56.9453L336.674 63.0391H333.065L332.268 58.6094C331.737 58.0625 331.072 57.625 330.276 57.2969C329.479 56.9688 328.541 56.8047 327.463 56.8047C326.088 56.8047 324.877 57.2109 323.83 58.0234C322.799 58.8359 321.994 59.9219 321.416 61.2812C320.838 62.6406 320.549 64.1562 320.549 65.8281V66.8125C320.549 68.6562 320.815 70.2578 321.346 71.6172C321.893 72.9766 322.666 74.0312 323.666 74.7812C324.682 75.5156 325.885 75.8828 327.276 75.8828C328.838 75.8828 330.135 75.4531 331.166 74.5938C332.197 73.7344 332.83 72.5547 333.065 71.0547H337.213L337.26 71.1953C337.182 72.6484 336.752 74.0078 335.971 75.2734C335.19 76.5391 334.072 77.5625 332.619 78.3438C331.182 79.1094 329.408 79.4922 327.299 79.4922ZM342.203 79V76.0469L346.024 75.3906V46.0703L342.203 45.4141V42.4375H350.641V57.0156C351.516 55.7969 352.586 54.8516 353.852 54.1797C355.118 53.5078 356.524 53.1719 358.071 53.1719C360.789 53.1719 362.899 53.9844 364.399 55.6094C365.899 57.2344 366.649 59.7344 366.649 63.1094V75.3906L370.469 76.0469V79H358.211V76.0469L362.032 75.3906V63.0625C362.032 60.9688 361.578 59.4219 360.672 58.4219C359.782 57.4219 358.446 56.9219 356.664 56.9219C355.399 56.9219 354.243 57.2266 353.196 57.8359C352.164 58.4297 351.313 59.2422 350.641 60.2734V75.3906L354.461 76.0469V79H342.203ZM383.569 79.3984C381.694 79.3984 380.202 78.8516 379.092 77.7578C377.998 76.6484 377.452 74.8828 377.452 72.4609V57.0625H373.444V53.6406H377.452V47.5234H382.069V53.6406H387.577V57.0625H382.069V72.4609C382.069 73.6797 382.311 74.5781 382.795 75.1562C383.28 75.7344 383.928 76.0234 384.741 76.0234C385.287 76.0234 385.897 75.9766 386.569 75.8828C387.241 75.7734 387.764 75.6797 388.139 75.6016L388.772 78.625C388.1 78.8281 387.272 79.0078 386.287 79.1641C385.319 79.3203 384.412 79.3984 383.569 79.3984ZM393.481 79V76.0469L397.301 75.3906V57.2734L393.481 56.6172V53.6406H401.918V75.3906L405.739 76.0469V79H393.481ZM397.067 47.3828V42.4375H401.918V47.3828H397.067ZM410.846 79V76.0469L414.667 75.3906V57.2734L410.846 56.6172V53.6406H418.792L419.12 57.4141C419.963 56.0703 421.018 55.0312 422.284 54.2969C423.565 53.5469 425.018 53.1719 426.643 53.1719C429.378 53.1719 431.495 53.9766 432.995 55.5859C434.495 57.1797 435.245 59.6484 435.245 62.9922V75.3906L439.065 76.0469V79H426.807V76.0469L430.628 75.3906V63.0859C430.628 60.8516 430.182 59.2656 429.292 58.3281C428.417 57.3906 427.073 56.9219 425.26 56.9219C423.932 56.9219 422.753 57.2422 421.721 57.8828C420.706 58.5234 419.893 59.3984 419.284 60.5078V75.3906L423.104 76.0469V79H410.846ZM455.165 89.2422C453.946 89.2422 452.626 89.0703 451.204 88.7266C449.782 88.3984 448.532 87.9453 447.454 87.3672L448.649 83.7812C449.508 84.2344 450.524 84.6094 451.696 84.9062C452.868 85.2031 454.008 85.3516 455.118 85.3516C457.18 85.3516 458.688 84.7734 459.641 83.6172C460.61 82.4609 461.094 80.8125 461.094 78.6719V76.2578C460.266 77.3203 459.274 78.125 458.118 78.6719C456.962 79.2188 455.633 79.4922 454.133 79.4922C452.071 79.4922 450.29 78.9844 448.79 77.9688C447.29 76.9375 446.133 75.5078 445.321 73.6797C444.524 71.8359 444.126 69.7031 444.126 67.2812V66.7891C444.126 64.0703 444.524 61.6875 445.321 59.6406C446.133 57.5938 447.29 56.0078 448.79 54.8828C450.29 53.7422 452.087 53.1719 454.18 53.1719C455.774 53.1719 457.173 53.4844 458.376 54.1094C459.579 54.7344 460.587 55.6406 461.399 56.8281L461.821 53.6406H465.712V78.6719C465.712 80.8594 465.298 82.7422 464.469 84.3203C463.657 85.8984 462.462 87.1094 460.883 87.9531C459.321 88.8125 457.415 89.2422 455.165 89.2422ZM455.282 75.7422C456.673 75.7422 457.837 75.4297 458.774 74.8047C459.712 74.1641 460.485 73.2656 461.094 72.1094V60.4375C460.501 59.3594 459.727 58.5078 458.774 57.8828C457.821 57.2422 456.673 56.9219 455.329 56.9219C453.86 56.9219 452.633 57.3438 451.649 58.1875C450.68 59.0312 449.954 60.1953 449.469 61.6797C448.985 63.1484 448.743 64.8516 448.743 66.7891V67.2812C448.743 69.8281 449.282 71.875 450.36 73.4219C451.438 74.9688 453.079 75.7422 455.282 75.7422ZM465.008 57.4141L463.204 53.6406H468.852V56.5938L465.008 57.4141Z" fill="#431F7F"/>
<path d="M229.771 141.369C228.225 141.369 226.895 140.988 225.781 140.227C224.68 139.453 223.836 138.381 223.25 137.01C222.664 135.639 222.371 134.039 222.371 132.211V131.842C222.371 129.803 222.664 128.016 223.25 126.48C223.836 124.945 224.686 123.756 225.799 122.912C226.912 122.057 228.248 121.629 229.807 121.629C230.932 121.629 231.922 121.84 232.777 122.262C233.645 122.672 234.383 123.27 234.992 124.055V116.303L232.127 115.811V113.578H234.992H238.455V138.293L241.32 138.785V141H235.449L235.168 138.732C234.547 139.6 233.785 140.256 232.883 140.701C231.992 141.146 230.955 141.369 229.771 141.369ZM230.65 138.557C231.682 138.557 232.549 138.322 233.252 137.854C233.955 137.385 234.535 136.723 234.992 135.867V127.043C234.547 126.246 233.967 125.613 233.252 125.145C232.537 124.676 231.682 124.441 230.686 124.441C229.584 124.441 228.676 124.758 227.961 125.391C227.246 126.012 226.713 126.879 226.361 127.992C226.01 129.094 225.834 130.377 225.834 131.842V132.211C225.834 134.121 226.227 135.656 227.012 136.816C227.797 137.977 229.01 138.557 230.65 138.557ZM252.271 141.369C250.514 141.369 248.984 140.971 247.684 140.174C246.383 139.365 245.375 138.246 244.66 136.816C243.957 135.387 243.605 133.734 243.605 131.859V131.086C243.605 129.281 243.975 127.67 244.713 126.252C245.463 124.822 246.453 123.697 247.684 122.877C248.926 122.045 250.279 121.629 251.744 121.629C253.455 121.629 254.885 121.98 256.033 122.684C257.193 123.387 258.066 124.377 258.652 125.654C259.238 126.92 259.531 128.414 259.531 130.137V132.299H247.191L247.139 132.387C247.162 133.605 247.373 134.689 247.771 135.639C248.182 136.576 248.768 137.314 249.529 137.854C250.291 138.393 251.205 138.662 252.271 138.662C253.443 138.662 254.469 138.498 255.348 138.17C256.238 137.83 257.006 137.367 257.65 136.781L259.004 139.031C258.324 139.688 257.422 140.244 256.297 140.701C255.184 141.146 253.842 141.369 252.271 141.369ZM247.297 129.592H256.068V129.135C256.068 128.221 255.904 127.406 255.576 126.691C255.26 125.965 254.779 125.396 254.135 124.986C253.502 124.564 252.705 124.354 251.744 124.354C250.971 124.354 250.268 124.582 249.635 125.039C249.002 125.484 248.48 126.094 248.07 126.867C247.66 127.641 247.391 128.52 247.262 129.504L247.297 129.592Z" fill="#431F7F"/>
<path d="M539.074 126.898V101H542.707V131H539.387L539.074 126.898ZM524.855 120.668V120.258C524.855 118.643 525.051 117.178 525.441 115.863C525.845 114.535 526.411 113.396 527.141 112.445C527.883 111.495 528.762 110.766 529.777 110.258C530.806 109.737 531.952 109.477 533.215 109.477C534.543 109.477 535.702 109.711 536.691 110.18C537.694 110.635 538.54 111.306 539.23 112.191C539.934 113.064 540.487 114.118 540.891 115.355C541.294 116.592 541.574 117.992 541.73 119.555V121.352C541.587 122.901 541.307 124.294 540.891 125.531C540.487 126.768 539.934 127.823 539.23 128.695C538.54 129.568 537.694 130.238 536.691 130.707C535.689 131.163 534.517 131.391 533.176 131.391C531.939 131.391 530.806 131.124 529.777 130.59C528.762 130.056 527.883 129.307 527.141 128.344C526.411 127.38 525.845 126.247 525.441 124.945C525.051 123.63 524.855 122.204 524.855 120.668ZM528.488 120.258V120.668C528.488 121.723 528.592 122.712 528.801 123.637C529.022 124.561 529.361 125.375 529.816 126.078C530.272 126.781 530.852 127.335 531.555 127.738C532.258 128.129 533.098 128.324 534.074 128.324C535.272 128.324 536.255 128.07 537.023 127.562C537.805 127.055 538.43 126.384 538.898 125.551C539.367 124.717 539.732 123.812 539.992 122.836V118.129C539.836 117.413 539.608 116.723 539.309 116.059C539.022 115.382 538.645 114.783 538.176 114.262C537.72 113.728 537.154 113.305 536.477 112.992C535.812 112.68 535.025 112.523 534.113 112.523C533.124 112.523 532.271 112.732 531.555 113.148C530.852 113.552 530.272 114.112 529.816 114.828C529.361 115.531 529.022 116.352 528.801 117.289C528.592 118.214 528.488 119.203 528.488 120.258ZM557.102 131.391C555.63 131.391 554.296 131.143 553.098 130.648C551.913 130.141 550.891 129.431 550.031 128.52C549.185 127.608 548.534 126.527 548.078 125.277C547.622 124.027 547.395 122.66 547.395 121.176V120.355C547.395 118.637 547.648 117.107 548.156 115.766C548.664 114.411 549.354 113.266 550.227 112.328C551.099 111.391 552.089 110.681 553.195 110.199C554.302 109.717 555.448 109.477 556.633 109.477C558.143 109.477 559.445 109.737 560.539 110.258C561.646 110.779 562.551 111.508 563.254 112.445C563.957 113.37 564.478 114.464 564.816 115.727C565.155 116.977 565.324 118.344 565.324 119.828V121.449H549.543V118.5H561.711V118.227C561.659 117.289 561.464 116.378 561.125 115.492C560.799 114.607 560.279 113.878 559.562 113.305C558.846 112.732 557.87 112.445 556.633 112.445C555.812 112.445 555.057 112.621 554.367 112.973C553.677 113.311 553.085 113.819 552.59 114.496C552.095 115.173 551.711 116 551.438 116.977C551.164 117.953 551.027 119.079 551.027 120.355V121.176C551.027 122.178 551.164 123.122 551.438 124.008C551.724 124.88 552.134 125.648 552.668 126.312C553.215 126.977 553.872 127.497 554.641 127.875C555.422 128.253 556.307 128.441 557.297 128.441C558.573 128.441 559.654 128.181 560.539 127.66C561.424 127.139 562.199 126.443 562.863 125.57L565.051 127.309C564.595 127.999 564.016 128.656 563.312 129.281C562.609 129.906 561.743 130.414 560.715 130.805C559.699 131.195 558.495 131.391 557.102 131.391Z" fill="#FF870F"/>
<path d="M591.945 122.699V102.562H595.695V122.699C595.695 124.574 595.311 126.156 594.543 127.445C593.775 128.734 592.714 129.717 591.359 130.395C590.018 131.059 588.475 131.391 586.73 131.391C584.986 131.391 583.436 131.091 582.082 130.492C580.728 129.893 579.667 128.982 578.898 127.758C578.13 126.534 577.746 124.991 577.746 123.129H581.516C581.516 124.327 581.737 125.31 582.18 126.078C582.622 126.846 583.234 127.413 584.016 127.777C584.81 128.142 585.715 128.324 586.73 128.324C587.72 128.324 588.605 128.116 589.387 127.699C590.181 127.27 590.806 126.638 591.262 125.805C591.717 124.958 591.945 123.923 591.945 122.699ZM620.148 127.934V131H605.09V127.934H620.148ZM605.852 102.562V131H602.082V102.562H605.852ZM618.156 114.789V117.855H605.09V114.789H618.156ZM619.953 102.562V105.648H605.09V102.562H619.953ZM641.086 102.562H644.836V121.801C644.836 123.936 644.361 125.714 643.41 127.133C642.46 128.552 641.197 129.62 639.621 130.336C638.059 131.039 636.359 131.391 634.523 131.391C632.596 131.391 630.852 131.039 629.289 130.336C627.74 129.62 626.509 128.552 625.598 127.133C624.699 125.714 624.25 123.936 624.25 121.801V102.562H627.98V121.801C627.98 123.285 628.254 124.509 628.801 125.473C629.348 126.436 630.109 127.152 631.086 127.621C632.076 128.09 633.221 128.324 634.523 128.324C635.839 128.324 636.984 128.09 637.961 127.621C638.951 127.152 639.719 126.436 640.266 125.473C640.812 124.509 641.086 123.285 641.086 121.801V102.562ZM671.77 116.84V127.25C671.418 127.771 670.858 128.357 670.09 129.008C669.322 129.646 668.26 130.206 666.906 130.688C665.565 131.156 663.833 131.391 661.711 131.391C659.979 131.391 658.384 131.091 656.926 130.492C655.48 129.88 654.224 128.995 653.156 127.836C652.102 126.664 651.281 125.245 650.695 123.578C650.122 121.898 649.836 119.997 649.836 117.875V115.668C649.836 113.546 650.083 111.651 650.578 109.984C651.086 108.318 651.828 106.905 652.805 105.746C653.781 104.574 654.979 103.689 656.398 103.09C657.818 102.478 659.445 102.172 661.281 102.172C663.456 102.172 665.272 102.549 666.73 103.305C668.202 104.047 669.348 105.076 670.168 106.391C671.001 107.706 671.535 109.203 671.77 110.883H668C667.831 109.854 667.492 108.917 666.984 108.07C666.49 107.224 665.78 106.547 664.855 106.039C663.931 105.518 662.74 105.258 661.281 105.258C659.966 105.258 658.827 105.499 657.863 105.98C656.9 106.462 656.105 107.152 655.48 108.051C654.855 108.949 654.387 110.036 654.074 111.312C653.775 112.589 653.625 114.027 653.625 115.629V117.875C653.625 119.516 653.814 120.98 654.191 122.27C654.582 123.559 655.135 124.659 655.852 125.57C656.568 126.469 657.421 127.152 658.41 127.621C659.413 128.09 660.52 128.324 661.73 128.324C663.072 128.324 664.159 128.214 664.992 127.992C665.826 127.758 666.477 127.484 666.945 127.172C667.414 126.846 667.772 126.54 668.02 126.254V119.887H661.438V116.84H671.77ZM685.715 131H679.777L679.816 127.934H685.715C687.746 127.934 689.439 127.51 690.793 126.664C692.147 125.805 693.163 124.607 693.84 123.07C694.53 121.521 694.875 119.711 694.875 117.641V115.902C694.875 114.275 694.68 112.829 694.289 111.566C693.898 110.29 693.326 109.216 692.57 108.344C691.815 107.458 690.891 106.788 689.797 106.332C688.716 105.876 687.473 105.648 686.066 105.648H679.66V102.562H686.066C687.928 102.562 689.628 102.875 691.164 103.5C692.701 104.112 694.022 105.004 695.129 106.176C696.249 107.335 697.108 108.741 697.707 110.395C698.306 112.035 698.605 113.884 698.605 115.941V117.641C698.605 119.698 698.306 121.553 697.707 123.207C697.108 124.848 696.242 126.247 695.109 127.406C693.99 128.565 692.635 129.457 691.047 130.082C689.471 130.694 687.694 131 685.715 131ZM681.789 102.562V131H678.02V102.562H681.789ZM723.371 126.684L731.75 102.562H735.832L725.305 131H722.395L723.371 126.684ZM715.539 102.562L723.84 126.684L724.875 131H721.965L711.457 102.562H715.539ZM748.703 105.082L739.289 131H735.441L746.281 102.562H748.762L748.703 105.082ZM756.594 131L747.16 105.082L747.102 102.562H749.582L760.461 131H756.594ZM756.105 120.473V123.559H740.129V120.473H756.105ZM786.145 102.562V131H782.355L768.039 109.066V131H764.27V102.562H768.039L782.414 124.555V102.562H786.145ZM823.762 116.84V127.25C823.41 127.771 822.85 128.357 822.082 129.008C821.314 129.646 820.253 130.206 818.898 130.688C817.557 131.156 815.826 131.391 813.703 131.391C811.971 131.391 810.376 131.091 808.918 130.492C807.473 129.88 806.216 128.995 805.148 127.836C804.094 126.664 803.273 125.245 802.688 123.578C802.115 121.898 801.828 119.997 801.828 117.875V115.668C801.828 113.546 802.076 111.651 802.57 109.984C803.078 108.318 803.82 106.905 804.797 105.746C805.773 104.574 806.971 103.689 808.391 103.09C809.81 102.478 811.438 102.172 813.273 102.172C815.448 102.172 817.264 102.549 818.723 103.305C820.194 104.047 821.34 105.076 822.16 106.391C822.993 107.706 823.527 109.203 823.762 110.883H819.992C819.823 109.854 819.484 108.917 818.977 108.07C818.482 107.224 817.772 106.547 816.848 106.039C815.923 105.518 814.732 105.258 813.273 105.258C811.958 105.258 810.819 105.499 809.855 105.98C808.892 106.462 808.098 107.152 807.473 108.051C806.848 108.949 806.379 110.036 806.066 111.312C805.767 112.589 805.617 114.027 805.617 115.629V117.875C805.617 119.516 805.806 120.98 806.184 122.27C806.574 123.559 807.128 124.659 807.844 125.57C808.56 126.469 809.413 127.152 810.402 127.621C811.405 128.09 812.512 128.324 813.723 128.324C815.064 128.324 816.151 128.214 816.984 127.992C817.818 127.758 818.469 127.484 818.938 127.172C819.406 126.846 819.764 126.54 820.012 126.254V119.887H813.43V116.84H823.762ZM834.055 102.562V131H830.285V102.562H834.055ZM856.066 123.812C856.066 123.148 855.962 122.562 855.754 122.055C855.559 121.534 855.207 121.065 854.699 120.648C854.204 120.232 853.514 119.835 852.629 119.457C851.757 119.079 850.65 118.695 849.309 118.305C847.902 117.888 846.633 117.426 845.5 116.918C844.367 116.397 843.397 115.805 842.59 115.141C841.783 114.477 841.164 113.715 840.734 112.855C840.305 111.996 840.09 111.013 840.09 109.906C840.09 108.799 840.318 107.777 840.773 106.84C841.229 105.902 841.88 105.089 842.727 104.398C843.586 103.695 844.608 103.148 845.793 102.758C846.978 102.367 848.299 102.172 849.758 102.172C851.893 102.172 853.703 102.582 855.188 103.402C856.685 104.21 857.824 105.271 858.605 106.586C859.387 107.888 859.777 109.281 859.777 110.766H856.027C856.027 109.698 855.799 108.754 855.344 107.934C854.888 107.1 854.198 106.449 853.273 105.98C852.349 105.499 851.177 105.258 849.758 105.258C848.417 105.258 847.31 105.46 846.438 105.863C845.565 106.267 844.914 106.814 844.484 107.504C844.068 108.194 843.859 108.982 843.859 109.867C843.859 110.466 843.983 111.013 844.23 111.508C844.491 111.99 844.888 112.439 845.422 112.855C845.969 113.272 846.659 113.656 847.492 114.008C848.339 114.359 849.348 114.698 850.52 115.023C852.134 115.479 853.527 115.987 854.699 116.547C855.871 117.107 856.835 117.738 857.59 118.441C858.358 119.132 858.924 119.919 859.289 120.805C859.667 121.677 859.855 122.667 859.855 123.773C859.855 124.932 859.621 125.98 859.152 126.918C858.684 127.855 858.013 128.656 857.141 129.32C856.268 129.984 855.22 130.499 853.996 130.863C852.785 131.215 851.431 131.391 849.934 131.391C848.618 131.391 847.323 131.208 846.047 130.844C844.784 130.479 843.632 129.932 842.59 129.203C841.561 128.474 840.734 127.576 840.109 126.508C839.497 125.427 839.191 124.177 839.191 122.758H842.941C842.941 123.734 843.13 124.574 843.508 125.277C843.885 125.967 844.4 126.54 845.051 126.996C845.715 127.452 846.464 127.79 847.297 128.012C848.143 128.22 849.022 128.324 849.934 128.324C851.249 128.324 852.362 128.142 853.273 127.777C854.185 127.413 854.875 126.892 855.344 126.215C855.826 125.538 856.066 124.737 856.066 123.812ZM875.168 102.562V131H871.457V102.562H875.168ZM884.309 102.562V105.648H862.336V102.562H884.309ZM906.594 127.934V131H891.535V127.934H906.594ZM892.297 102.562V131H888.527V102.562H892.297ZM904.602 114.789V117.855H891.535V114.789H904.602ZM906.398 102.562V105.648H891.535V102.562H906.398ZM911.262 102.562H920.676C922.811 102.562 924.615 102.888 926.086 103.539C927.57 104.19 928.697 105.154 929.465 106.43C930.246 107.693 930.637 109.249 930.637 111.098C930.637 112.4 930.37 113.591 929.836 114.672C929.315 115.74 928.56 116.651 927.57 117.406C926.594 118.148 925.422 118.702 924.055 119.066L923 119.477H914.152L914.113 116.41H920.793C922.147 116.41 923.273 116.176 924.172 115.707C925.07 115.225 925.747 114.581 926.203 113.773C926.659 112.966 926.887 112.074 926.887 111.098C926.887 110.004 926.672 109.047 926.242 108.227C925.812 107.406 925.135 106.775 924.211 106.332C923.299 105.876 922.121 105.648 920.676 105.648H915.031V131H911.262V102.562ZM927.883 131L920.969 118.109L924.895 118.09L931.906 130.766V131H927.883ZM953.977 127.934V131H938.918V127.934H953.977ZM939.68 102.562V131H935.91V102.562H939.68ZM951.984 114.789V117.855H938.918V114.789H951.984ZM953.781 102.562V105.648H938.918V102.562H953.781ZM980.52 102.562V131H976.73L962.414 109.066V131H958.645V102.562H962.414L976.789 124.555V102.562H980.52Z" fill="#431F7F"/>
<rect x="498" y="54" width="5" height="129" fill="url(#paint1_linear_14_2)"/>
<defs>
<linearGradient id="paint0_linear_14_2" x1="173" y1="0" x2="173" y2="247" gradientUnits="userSpaceOnUse">
<stop stop-color="#FF870F"/>
<stop offset="1" stop-color="#FFA347"/>
</linearGradient>
<linearGradient id="paint1_linear_14_2" x1="500.5" y1="54" x2="500.5" y2="183" gradientUnits="userSpaceOnUse">
<stop stop-color="#662BBD"/>
<stop offset="1" stop-color="#431F7F"/>
</linearGradient>
</defs>
</svg>
